<svg width="38" height="44" viewBox="0 0 38 44" fill="none" xmlns="http://www.w3.org/2000/svg">
<path d="M19 42L18.1462 43.2333C18.6306 43.5687 19.2665 43.5894 19.7717 43.2862L19 42ZM34.5 19C34.5 23.2 32.3615 27.4938 29.1556 31.3786C25.9667 35.2426 21.8537 38.5385 18.2283 40.7138L19.7717 43.2862C23.6463 40.9615 28.0333 37.4518 31.4694 33.2881C34.8885 29.1451 37.5 24.1888 37.5 19H34.5ZM19.8538 40.7667C16.6672 38.5606 12.5276 35.241 9.2018 31.3576C5.84603 27.4391 3.5 23.158 3.5 19H0.5C0.5 24.2308 3.40397 29.1997 6.9232 33.309C10.4724 37.4534 14.8328 40.9394 18.1462 43.2333L19.8538 40.7667ZM3.5 19C3.5 10.4396 10.4396 3.5 19 3.5V0.5C8.78273 0.5 0.5 8.78273 0.5 19H3.5ZM19 3.5C27.5604 3.5 34.5 10.4396 34.5 19H37.5C37.5 8.78273 29.2173 0.5 19 0.5V3.5ZM22.5 19C22.5 20.933 20.933 22.5 19 22.5V25.5C22.5899 25.5 25.5 22.5899 25.5 19H22.5ZM19 22.5C17.067 22.5 15.5 20.933 15.5 19H12.5C12.5 22.5899 15.4101 25.5 19 25.5V22.5ZM15.5 19C15.5 17.067 17.067 15.5 19 15.5V12.5C15.4101 12.5 12.5 15.4101 12.5 19H15.5ZM19 15.5C20.933 15.5 22.5 17.067 22.5 19H25.5C25.5 15.4101 22.5899 12.5 19 12.5V15.5Z" fill="white"/>
</svg>
