<svg width="34" height="34" viewBox="0 0 34 34" fill="none" xmlns="http://www.w3.org/2000/svg">
<path d="M23.4229 19.4049H19.4229V23.4049L26.313 30.2214L30.313 26.2214L23.4229 19.4049Z" fill="#FFFEFC"/>
<path d="M33.6398 29.8155L31.7044 27.8802L28.005 31.5796L29.9404 33.515C30.3309 33.9055 30.9641 33.9055 31.3546 33.515L33.6398 31.2298C34.0303 30.8392 34.0303 30.2061 33.6398 29.8155Z" fill="#FFFEFC"/>
<path d="M6.51685 6.4751H9.75006V9.69719H6.51685V6.4751Z" fill="#FFFEFC"/>
<path d="M6.51685 12.9398H9.75006V16.1619H6.51685V12.9398Z" fill="#FFFEFC"/>
<path d="M6.51685 19.4049H9.75006V22.627H6.51685V19.4049Z" fill="#FFFEFC"/>
<path d="M12.9697 19.4049H16.2029V22.627H12.9697V19.4049Z" fill="#FFFEFC"/>
<path d="M12.9697 12.9398H22.6701V16.1619H12.9697V12.9398Z" fill="#FFFEFC"/>
<path d="M12.9697 6.4751H22.6701V9.69719H12.9697V6.4751Z" fill="#FFFEFC"/>
<path d="M3.77258 0.0429688C1.83959 0.0429688 0.272583 1.60997 0.272583 3.54297V28.7807C0.272583 30.7137 1.83958 32.2807 3.77258 32.2807H24.5366L21.1312 29.2807H3.77258C3.49644 29.2807 3.27258 29.0569 3.27258 28.7807V3.54297C3.27258 3.26683 3.49644 3.04297 3.77258 3.04297H25.4C25.6761 3.04297 25.9 3.26682 25.9 3.54297V17.2163L28.9 19.7985V3.54297C28.9 1.60997 27.333 0.0429688 25.4 0.0429688H3.77258Z" fill="#FFFEFC"/>
</svg>
