<svg width="49" height="49" viewBox="0 0 49 49" fill="none" xmlns="http://www.w3.org/2000/svg">
<path fill-rule="evenodd" clip-rule="evenodd" d="M21.474 2.63013C21.474 1.52556 22.3695 0.630127 23.474 0.630127C36.5566 0.630127 48.3606 11.5064 48.3606 24.7617C48.3606 37.9317 37.6843 48.608 24.5144 48.608C11.3444 48.608 0.668091 37.9317 0.668091 24.7617C0.668091 18.0699 2.83719 12.9617 7.35386 8.5986C8.1483 7.83117 9.41444 7.85307 10.1819 8.6475C10.9493 9.44194 10.9274 10.7081 10.133 11.4755C6.42482 15.0576 4.66809 19.1148 4.66809 24.7617C4.66809 35.7225 13.5536 44.608 24.5144 44.608C35.4751 44.608 44.3606 35.7225 44.3606 24.7617C44.3606 14.5476 35.6823 5.76176 25.474 4.73108V13.5325C25.474 14.637 24.5786 15.5325 23.474 15.5325C22.3695 15.5325 21.474 14.637 21.474 13.5325V2.63013Z" fill="black"/>
<path d="M19.9374 28.3883L10.8801 15.4463C10.7392 15.2652 10.6989 15.0438 10.719 14.8224C10.7392 14.601 10.8197 14.3997 10.9807 14.2387C11.1417 14.0777 11.343 13.9972 11.5644 13.977C11.7657 13.9569 11.9871 14.0173 12.1682 14.1381L25.1101 23.1954C25.8951 23.759 26.4385 24.6244 26.5996 25.5906C26.7606 26.5567 26.5392 27.5429 25.9756 28.348C25.412 29.1531 24.5667 29.6966 23.6006 29.8777C22.6345 30.0588 21.6482 29.8374 20.8431 29.294C20.501 29.0525 20.1789 28.7506 19.9374 28.3883Z" fill="black"/>
</svg>
